<?xml version="1.0" encoding="utf-8"?>
<!-- Generator: Adobe Illustrator 26.1.0, SVG Export Plug-In . SVG Version: 6.00 Build 0)  -->
<svg version="1.1" id="Слой_1" xmlns="http://www.w3.org/2000/svg" xmlns:xlink="http://www.w3.org/1999/xlink" x="0px" y="0px"
	 viewBox="0 0 682.6 636" style="enable-background:new 0 0 682.6 636;" xml:space="preserve">
<style type="text/css">
	.st0{fill:#24365B;}
	.st1{fill:#1A1B1F;}
	.st2{fill:#7D8FD3;}
	.st3{fill:#00D08A;}
	.st4{opacity:0.11;fill:#3B1E59;enable-background:new    ;}
	.st5{fill:#D8DDF2;}
	.st6{opacity:8.000000e-02;enable-background:new    ;}
	.st7{fill:#FFD200;}
	.st8{fill:#7586C4;}
	.st9{fill:#E63B3B;}
	.st10{opacity:0.16;fill:#FFFFFF;enable-background:new    ;}
	.st11{fill:#FFFFFF;fill-opacity:0.3;}
	.st12{fill:#FFFFFF;}
	.st13{opacity:8.000000e-02;fill:#FFFFFF;enable-background:new    ;}
</style>
<path class="st0" d="M305.1,479.6c0,0,16.2,54.3-15.4,70.4c-31.7,16-50.7-8.9-83.8,13.1c-33,22-15.6-54.5-66-51
	s-31.5,43.4-31.5,43.4S65,513,42.5,549.9s-11.6,71.6,89.8,61.2c101.4-10.4,175.8,3.8,263.6,1.9c87.8-1.9,249.4,15.5,258-33.2
	s-36.5-70.3-83.4-43s-39-35.6-93.3-6.8c-54.2,28.8-118.4,62-134.8-65.4L305.1,479.6z"/>
<path class="st1" d="M194.6,47.4C78.3,73,0.9,185.3,22.4,302.5c10.2,55.9,43,111.4,125.6,137.3C346.1,502,569.5,471,608.8,348.6
	c39.4-122.4,13.9-201.2-82.2-262.7C464.5,46.2,316,20.6,194.6,47.4z"/>
<path class="st2" d="M271.5,281.1l-93,103.9h101.3L271.5,281.1z"/>
<path class="st2" d="M385,281.1L478,385H376.7L385,281.1z"/>
<path class="st3" d="M326.3,114.9v-0.6l-0.3,0.3l-0.3-0.3v0.6c-8.1,8.1-89.1,97.2-42.4,349.7H373
	C419.7,211.7,334.6,122.9,326.3,114.9z"/>
<path class="st4" d="M380.6,243.1l2.6,17.9c-24.3,10.1-50.5,14.3-76.7,12.3c-7-0.6-14,0.5-20.4,3.3s-12,7.2-16.3,12.8
	c0,0,2.6-36.9,4.4-45.3L380.6,243.1z"/>
<path class="st5" d="M326.3,114.9v-0.6l-0.3,0.3l-0.3-0.3v0.6c-8.1,8.1-89.1,97.2-42.4,349.7H373
	C419.7,211.7,334.6,122.9,326.3,114.9z"/>
<path class="st6" d="M294.7,326l-24.9,28.1c0.6,25.1,3.1,50,7.5,74.7l63.1-46.9L294.7,326z"/>
<path class="st7" d="M279.8,445.2l3.4,19.5h90.6l3.6-19.5H279.8z"/>
<path class="st7" d="M278.5,221.1l-0.2,0.5c-2.5,6.7-3.9,13.8-4,20.9l-0.3,1.7c0,0,50.4,28.6,106.5-1c0.3-1,0.4-2,0.4-3
	c-0.2-6.5-1.6-13-4.2-19L278.5,221.1L278.5,221.1z"/>
<path class="st3" d="M279.8,445.2l3.4,19.5h90.6l3.6-19.5H279.8z"/>
<path class="st3" d="M278.5,221.1l-0.2,0.5c-2.5,6.7-3.9,13.8-4,20.9l-0.3,1.7c0,0,50.4,28.6,106.5-1c0.3-1,0.4-2,0.4-3
	c-0.2-6.5-1.6-13-4.2-19L278.5,221.1L278.5,221.1z"/>
<path class="st8" d="M279.8,445.2l3.4,19.5h90.6l3.6-19.5H279.8z"/>
<path class="st8" d="M278.5,221.1l-0.2,0.5c-2.5,6.7-3.9,13.8-4,20.9l-0.3,1.7c0,0,50.4,28.6,106.5-1c0.3-1,0.4-2,0.4-3
	c-0.2-6.5-1.6-13-4.2-19L278.5,221.1L278.5,221.1z"/>
<path class="st2" d="M278.5,221.1c0,0,47.6,22.2,98.2,0c0,0-7.1-69.5-40.8-109.5c-1-1.2-2.3-2.2-3.7-2.8c-1.4-0.7-3-1-4.6-1
	s-3.1,0.4-4.5,1.1s-2.7,1.7-3.6,2.9C308.3,125.9,288.8,158.2,278.5,221.1z"/>
<path class="st2" d="M328.8,384.9c21.6,0,39.1-17.5,39.1-39.2s-17.5-39.2-39.1-39.2s-39.1,17.5-39.1,39.2S307.2,384.9,328.8,384.9z"
	/>
<path class="st9" d="M328.8,369.7c13.2,0,23.9-10.7,23.9-23.9c0-13.2-10.7-23.9-23.9-23.9c-13.2,0-23.9,10.7-23.9,23.9
	S315.6,369.7,328.8,369.7z"/>
<path class="st10" d="M334.4,345.8c4.6,0,8.4-3.8,8.4-8.4c0-4.7-3.8-8.4-8.4-8.4s-8.4,3.8-8.4,8.4
	C325.9,342,329.7,345.8,334.4,345.8z"/>
<path class="st2" d="M283.2,464.6l-54,65.4l113.2-39v-26.4H283.2z"/>
<path class="st2" d="M373.3,464.6l54,65.4l-113.2-39v-26.4H373.3z"/>
<path class="st11" d="M95.5,305.4c4,0,7.3-3.3,7.3-7.3s-3.3-7.3-7.3-7.3s-7.3,3.3-7.3,7.3C88.1,302.1,91.4,305.4,95.5,305.4z"/>
<path class="st12" d="M261.5,87.5c4,0,7.3-3.3,7.3-7.3s-3.3-7.3-7.3-7.3s-7.3,3.3-7.3,7.3C254.1,84.2,257.4,87.5,261.5,87.5z"/>
<path class="st11" d="M451.7,239c4,0,7.3-3.3,7.3-7.3s-3.3-7.3-7.3-7.3s-7.3,3.3-7.3,7.3S447.7,239,451.7,239z"/>
<path class="st12" d="M427,96.8c1.9,0,3.5-1.6,3.5-3.5s-1.6-3.5-3.5-3.5s-3.5,1.6-3.5,3.5S425.1,96.8,427,96.8z"/>
<path class="st12" d="M583.8,273.3c1.9,0,3.5-1.6,3.5-3.5s-1.6-3.5-3.5-3.5s-3.5,1.6-3.5,3.5S581.8,273.3,583.8,273.3z"/>
<path class="st12" d="M505.4,416.3c1.9,0,3.5-1.6,3.5-3.5s-1.6-3.5-3.5-3.5s-3.5,1.6-3.5,3.5S503.5,416.3,505.4,416.3z"/>
<path class="st12" d="M222.7,425.9c1.9,0,3.5-1.6,3.5-3.5s-1.6-3.5-3.5-3.5s-3.5,1.6-3.5,3.5S220.8,425.9,222.7,425.9z"/>
<path class="st13" d="M175.3,251.8c40.1,0,72.5-32.5,72.5-72.6s-32.5-72.6-72.5-72.6s-72.5,32.5-72.5,72.6S135.2,251.8,175.3,251.8z
	"/>
<path class="st5" d="M175.3,236.7c31.8,0,57.5-25.8,57.5-57.6s-25.7-57.6-57.5-57.6s-57.5,25.8-57.5,57.6
	C117.8,211,143.5,236.7,175.3,236.7z"/>
<path class="st6" d="M155.3,166c6.7,0,12.1-5.4,12.1-12.1s-5.4-12.1-12.1-12.1c-6.7,0-12.1,5.4-12.1,12.1S148.7,166,155.3,166z"/>
<path class="st6" d="M191.6,161.2c4.4,0,8.1-3.6,8.1-8.1s-3.6-8.1-8.1-8.1c-4.4,0-8,3.6-8,8.1C183.5,157.5,187.1,161.2,191.6,161.2z
	"/>
</svg>
