<?xml version="1.0" encoding="utf-8"?>
<!-- Generator: Adobe Illustrator 26.1.0, SVG Export Plug-In . SVG Version: 6.00 Build 0)  -->
<svg version="1.1" id="Слой_1" xmlns="http://www.w3.org/2000/svg" xmlns:xlink="http://www.w3.org/1999/xlink" x="0px" y="0px"
	 viewBox="0 0 1440 827.6" style="enable-background:new 0 0 1440 827.6;" xml:space="preserve">
<style type="text/css">
	.st0{fill:#1A1B1F;}
	.st1{opacity:0.1;}
	.st2{fill:#25262A;}
	.st3{fill:url(#SVGID_1_);}
	.st4{fill:#FFFFFF;fill-opacity:0.1;}
</style>
<g>
	<rect y="0" class="st0" width="1440" height="827.6"/>
	<g class="st1">
		<rect y="0" class="st2" width="1440" height="825"/>
		
			<linearGradient id="SVGID_1_" gradientUnits="userSpaceOnUse" x1="1078.8662" y1="1569.3311" x2="585.8652" y2="712.836" gradientTransform="matrix(1 0 0 -1 0 1631.7323)">
			<stop  offset="0" style="stop-color:#4F71E0"/>
			<stop  offset="1" style="stop-color:#4F71E0;stop-opacity:0"/>
		</linearGradient>
		<path class="st3" d="M762.5,364.1c-41-65.9-230.8-128.3-246-247.5c-5.5-43.1,7.1-85.7,64-116.6H1441v162.6v392.5v270.2h-434.5H91
			H-3V549.9c24.2-31,200-54,378.5,20.9C742.1,724.6,803.5,430,762.5,364.1z"/>
	</g>
	<path class="st4" d="M528.5,386.5c4,0,7.3-3.3,7.3-7.3s-3.3-7.3-7.3-7.3s-7.3,3.3-7.3,7.3C521.1,383.2,524.4,386.5,528.5,386.5z"/>
	<path class="st4" d="M694.5,168.6c4,0,7.3-3.3,7.3-7.3s-3.3-7.3-7.3-7.3s-7.3,3.3-7.3,7.3S690.4,168.6,694.5,168.6z"/>
	<path class="st4" d="M884.7,320.1c4,0,7.3-3.3,7.3-7.3s-3.3-7.3-7.3-7.3s-7.3,3.3-7.3,7.3C877.4,316.8,880.7,320.1,884.7,320.1z"/>
	<path class="st4" d="M655.7,507c1.9,0,3.5-1.6,3.5-3.5s-1.6-3.5-3.5-3.5s-3.5,1.6-3.5,3.5S653.8,507,655.7,507z"/>
	<path class="st4" d="M235,64.9c2.5-3.1,2.1-7.8-1.1-10.3s-7.8-2.1-10.3,1.1c-2.5,3.1-2.1,7.8,1.1,10.3
		C227.8,68.5,232.5,68.1,235,64.9z"/>
	<path class="st4" d="M288,541.9c2.5-3.1,2.1-7.8-1.1-10.3s-7.8-2.1-10.3,1.1c-2.5,3.1-2.1,7.8,1.1,10.3
		C280.8,545.5,285.5,545.1,288,541.9z"/>
	<path class="st4" d="M300.7,124.2c1.2-1.5,1-3.7-0.5-4.9c-1.5-1.2-3.7-1-4.9,0.5c-1.2,1.5-1,3.7,0.5,4.9
		C297.2,125.9,299.5,125.7,300.7,124.2z"/>
	<path class="st4" d="M1005.2,488.6c1.3-3.8-0.7-8-4.5-9.3s-8,0.7-9.3,4.5s0.7,8,4.5,9.3C999.7,494.5,1003.9,492.4,1005.2,488.6z"/>
	<path class="st4" d="M853.6,260.5c1.3-3.8-0.7-8-4.5-9.3s-8,0.7-9.3,4.5s0.7,8,4.5,9.3S852.2,264.3,853.6,260.5z"/>
	<path class="st4" d="M1059,130.3c1.3-3.8-0.7-8-4.5-9.3s-8,0.7-9.3,4.5s0.7,8,4.5,9.3S1057.7,134.1,1059,130.3z"/>
	<path class="st4" d="M1160.7,407.8c0.6-1.8-0.3-3.8-2.2-4.5c-1.8-0.6-3.8,0.3-4.5,2.2c-0.6,1.8,0.3,3.8,2.2,4.5
		C1158.1,410.6,1160.1,409.6,1160.7,407.8z"/>
	<path class="st4" d="M605.3,660.8c-2.1-3.4-6.7-4.5-10.1-2.3c-3.4,2.1-4.5,6.7-2.3,10.1c2.1,3.4,6.7,4.5,10.1,2.3
		C606.4,668.7,607.5,664.2,605.3,660.8z"/>
	<path class="st4" d="M1073.4,766.7c-2.1-3.4-6.7-4.5-10.1-2.3c-3.4,2.1-4.5,6.7-2.3,10.1s6.7,4.5,10.1,2.3
		S1075.6,770.1,1073.4,766.7z"/>
</g>
</svg>
